<svg xmlns="http://www.w3.org/2000/svg" viewBox="0 0 64 64" width="64" height="64" role="img" aria-labelledby="t"><title id="t">Octo token</title>
  <circle cx="32" cy="32" r="32" fill="#1E63C8"/>
  <circle cx="32" cy="32" r="30" fill="none" stroke="#FFFFFF" stroke-width="2"/>
  <g fill="none" stroke="#7FB2FF" stroke-width="4.5" stroke-linecap="round">
    <path d="M20 40 C16 46 14 52 20 55"/><path d="M27 43 C26 48 25 52 28 56"/><path d="M37 43 C38 48 39 52 36 56"/><path d="M44 40 C48 46 50 52 44 55"/>
  </g>
  <ellipse cx="32" cy="30" rx="16" ry="15" fill="#7FB2FF"/>
  <ellipse cx="26" cy="31" rx="4.2" ry="5" fill="#FFFFFF"/>
  <ellipse cx="38" cy="31" rx="4.2" ry="5" fill="#FFFFFF"/>
  <ellipse cx="26.5" cy="32.5" rx="2.4" ry="1.5" fill="#0E1116"/>
  <ellipse cx="37.5" cy="32.5" rx="2.4" ry="1.5" fill="#0E1116"/>
  <path d="M29 39 Q32 41 35 39" fill="none" stroke="#0E1116" stroke-width="1.8" stroke-linecap="round"/>
</svg>
